<svg xmlns="http://www.w3.org/2000/svg" xmlns:xlink="http://www.w3.org/1999/xlink" xml:space="preserve" version="1.1" style="shape-rendering:geometricPrecision;text-rendering:geometricPrecision;image-rendering:optimizeQuality;" viewBox="0 0 793 772.5" x="0px" y="0px" fill-rule="evenodd" clip-rule="evenodd"><defs><style type="text/css">
   
    .fil0 {fill:white}
   
  </style></defs><g><path class="fil0" d="M615 533l0 30c0,30 25,55 56,55 30,0 56,-25 56,-55l0 -30 66 0 0 -227c0,-43 -34,-78 -76,-80l-2 -5c23,-1 41,-11 43,-24 2,-17 -21,-33 -50,-37 -7,-1 -13,-1 -18,-1l-52 -121c-14,-20 -33,-36 -59,-38l-365 0c-27,2 -45,18 -60,38l-51 121c-6,0 -12,0 -18,1 -30,4 -52,20 -50,37 2,13 20,23 42,24l-2 5c-42,2 -75,37 -75,80l0 227 66 0 0 30c0,30 25,55 56,55 31,0 56,-25 56,-55l0 -30 437 0zm16 -201l93 0c0,-26 -21,-47 -47,-47 -25,0 -46,21 -46,47zm-562 0l93 0c0,-26 -21,-47 -47,-47 -25,0 -46,21 -46,47zm415 -283l0 20 -25 0 0 41 86 0 0 -41 -24 0 0 -20 20 0c21,1 36,12 48,26l52 126 -80 0c2,-5 3,-10 3,-15 0,-26 -22,-48 -48,-48 -26,0 -48,22 -48,48 0,5 1,10 3,15 -173,0 -180,0 -319,0l52 -126c12,-14 26,-25 48,-26 39,0 77,0 232,0zm64 262c5,0 10,5 10,11 0,6 -5,10 -10,10l-303 0c-6,0 -10,-4 -10,-10 0,-6 4,-11 10,-11l303 0zm0 51c5,0 10,5 10,11 0,5 -5,10 -10,10l-303 0c-6,0 -10,-5 -10,-10 0,-6 4,-11 10,-11l303 0zm0 51c5,0 10,5 10,10 0,6 -5,11 -10,11l-303 0c-6,0 -10,-5 -10,-11 0,-5 4,-10 10,-10l303 0zm-1 -212l-25 0 0 -10c10,-1 19,-4 28,-9 0,1 1,3 1,4 0,5 -2,10 -4,15zm-37 0l-25 0c-2,-5 -4,-10 -4,-15 0,-1 1,-3 1,-4 9,5 18,8 28,9l0 10zm-25 -31c20,12 42,12 62,0 -6,-11 -18,-19 -31,-19 -13,0 -25,8 -31,19zm3 -121l29 0 0 20 -29 0 0 -20z"/></g></svg>
