<svg xmlns="http://www.w3.org/2000/svg" fill="#22B47E" data-name="Layer 1" viewBox="0 0 100 125" x="0px" y="0px"><title>Artboard 7</title><path d="M69.71,33a1.06,1.06,0,0,1-.3,2.08H11l2.34-9.42a8.61,8.61,0,0,1,10.81-6.18Zm16.95-3.25L47,2.51A8.61,8.61,0,0,0,34.78,5.06l-5.13,8.24.12,0,56,18.13A1,1,0,0,0,86.66,29.75ZM50,82.22A11.27,11.27,0,1,0,38.73,70.95,11.27,11.27,0,0,0,50,82.22ZM6.26,51.41a8.52,8.52,0,0,1,8.52-8.52H85.23a8.52,8.52,0,0,1,8.52,8.52V90.48A8.52,8.52,0,0,1,85.23,99H14.77a8.52,8.52,0,0,1-8.52-8.52ZM16,75.89a2.08,2.08,0,0,0,1.44,2A15.63,15.63,0,0,1,27.79,89.23H72.21A15.63,15.63,0,0,1,84,77.47v-13A15.63,15.63,0,0,1,72.21,52.66H27.79A15.63,15.63,0,0,1,17.46,64,2.08,2.08,0,0,0,16,66Z"/></svg>
