<svg xmlns="http://www.w3.org/2000/svg" fill="#22B47E" xmlns:xlink="http://www.w3.org/1999/xlink" version="1.1" x="0px" y="0px" viewBox="0 0 100 125" enable-background="new 0 0 100 100" xml:space="preserve"><path d="M73,15.5H27c-6.341,0-11.5,5.159-11.5,11.5v46c0,6.341,5.159,11.5,11.5,11.5h46c6.341,0,11.5-5.159,11.5-11.5V27  C84.5,20.659,79.341,15.5,73,15.5z M77.5,73c0,2.481-2.019,4.5-4.5,4.5H27c-2.481,0-4.5-2.019-4.5-4.5V27c0-2.481,2.019-4.5,4.5-4.5  h46c2.481,0,4.5,2.019,4.5,4.5V73z M46.226,57.243l-12.437-9.672l-4.297,5.525l17.563,13.66l23.898-26.408l-5.189-4.697  L46.226,57.243z"/></svg>
