<?xml version="1.0" encoding="UTF-8"?>
<svg width="14px" height="14px" viewBox="0 0 14 14" version="1.1" xmlns="http://www.w3.org/2000/svg" xmlns:xlink="http://www.w3.org/1999/xlink">
    <!-- Generator: Sketch 48.1 (47250) - http://www.bohemiancoding.com/sketch -->
    <title>noun_1272159_cc</title>
    <desc>Created with Sketch.</desc>
    <defs></defs>
    <g id="users-index-(desktop)" stroke="none" stroke-width="1" fill="none" fill-rule="evenodd" transform="translate(-1351.000000, -289.000000)">
        <g id="noun_1272159_cc" transform="translate(1351.000000, 289.000000)" fill="#323338" fill-rule="nonzero">
            <path d="M7,6.64235998e-17 C3.13400675,4.64965198e-16 5.31388798e-16,3.13400675 0,7 C-4.64965198e-16,10.8659932 3.13400675,14 7,14 C10.8659932,14 14,10.8659932 14,7 C13.9958781,3.13571539 10.8642846,0.0041219071 7,6.64235998e-17 Z M7,12.5042735 C3.96007368,12.5042735 1.4957265,10.0399263 1.4957265,7 C1.4957265,3.96007368 3.96007368,1.4957265 7,1.4957265 C10.0399263,1.4957265 12.5042735,3.96007368 12.5042735,7 C12.5009761,10.0385594 10.0385594,12.5009761 7,12.5042735 Z" id="Shape"></path>
            <path d="M7.35740101,6.29438268 L7.35740101,3.18746008 C7.35740101,2.79154269 7.00086415,2.47058824 6.56105364,2.47058824 C6.12124312,2.47058824 5.76470626,2.79154269 5.76470626,3.18746008 L5.76470626,6.62844496 C5.76447713,6.84019441 5.86825269,7.04120219 6.04820593,7.1775688 L9.3928649,9.71099391 C9.61027053,9.87784666 9.91030606,9.92707788 10.179127,9.84000744 C10.4479479,9.752937 10.6443583,9.54290818 10.6938327,9.28961361 C10.7433072,9.03631905 10.638264,8.77857537 10.4185603,8.61417998 L7.35740101,6.29438268 Z" id="Shape"></path>
        </g>
    </g>
</svg>