<svg xmlns="http://www.w3.org/2000/svg" xmlns:xlink="http://www.w3.org/1999/xlink" xml:space="preserve" version="1.1" style="shape-rendering:geometricPrecision;text-rendering:geometricPrecision;image-rendering:optimizeQuality;" viewBox="0 0 197 248.75" x="0px" y="0px" fill-rule="evenodd" clip-rule="evenodd"><defs><style type="text/css">
   
    .fil0 {fill:white;fill-rule:nonzero}
   
  </style></defs><g><path class="fil0" d="M49 50l0 50 -49 0 99 99 98 -99 -49 0 0 -50 -99 0zm0 -30l0 20 99 0 0 -20 -99 0zm0 -20l0 10 99 0 0 -10 -99 0zm0 75m-24 25m24 50m99 0m24 -50m-24 -25m-49 -25m-50 -20m50 10m49 -10m-49 -10m-50 -15m50 5m49 -5m-49 -5"/></g></svg>
