<?xml version="1.0" encoding="UTF-8"?>
<svg width="32px" height="33px" viewBox="0 0 32 33" version="1.1" xmlns="http://www.w3.org/2000/svg" xmlns:xlink="http://www.w3.org/1999/xlink">
    <!-- Generator: Sketch 48.1 (47250) - http://www.bohemiancoding.com/sketch -->
    <title>car</title>
    <desc>Created with Sketch.</desc>
    <defs></defs>
    <g id="home" stroke="none" stroke-width="1" fill="none" fill-rule="evenodd" transform="translate(-559.000000, -1073.000000)">
        <g id="Group-2" transform="translate(545.000000, 1061.000000)" fill="#22B47E">
            <g id="car" transform="translate(14.250000, 12.750000)">
                <path d="M22.4490917,17.2525525 C22.8343485,17.3003708 23.226798,17.325 23.625,17.325 C25.1510944,17.325 26.5926978,16.9632515 27.8687385,16.3208263 C28.1621538,16.5570922 28.35,16.9192425 28.35,17.325 L28.35,18.6136363 L25.7727273,19.0433966 L25.7727273,30.2113637 C25.7727273,30.9233352 25.1960625,31.5 24.4840909,31.5 L22.5511363,31.5 L21.8423863,27.6340909 L6.50761363,27.6340909 L5.79886363,31.5 L3.86590909,31.5 C3.15458182,31.5 2.57727273,30.9233352 2.57727273,30.2113637 L2.57727273,19.0433966 L0,18.6136363 L0,17.325 C0,16.6136727 0.577309091,16.0363637 1.28863637,16.0363637 L3.45290113,16.0363637 L5.01730568,11.4301329 C5.44899887,9.70400458 7.24084773,8.30454542 9.02045458,8.30454542 L14.1845886,8.30454542 C14.2247316,9.20187655 14.3900172,10.066645 14.6634124,10.8818182 L8.4553875,10.8818182 C8.09907958,10.8818182 7.76338977,11.1659625 7.70540113,11.5171159 L5.87811477,17.325 L22.4718852,17.325 L22.4490917,17.2525525 Z M5.79886363,23.7681818 C4.73187273,23.7681818 3.86590909,22.9028625 3.86590909,21.8352273 C3.86590909,20.7675921 4.73187273,19.9022727 5.79886363,19.9022727 C6.86585454,19.9022727 7.73181818,20.7675921 7.73181818,21.8352273 C7.73181818,22.9028625 6.86585454,23.7681818 5.79886363,23.7681818 Z M18.0409091,23.7681818 C18.0409091,24.4801534 17.3489113,25.0568182 16.4945454,25.0568182 L11.8554546,25.0568182 C11.0018618,25.0568182 10.3090909,24.4801534 10.3090909,23.7681818 L10.3090909,22.4795454 L18.0409091,22.4795454 L18.0409091,23.7681818 Z M22.3442969,8.92540365 L21.2101322,7.79123888 C20.8297516,7.4108583 20.2033336,7.40577644 19.8201051,7.78900493 C19.4342048,8.1749052 19.4378768,8.79456973 19.8223391,9.17903204 L22.2983072,11.6550002 L22.3442969,11.6090104 L22.3902867,11.6550002 L27.6440563,6.40123057 C28.0265724,6.01871448 28.0273035,5.39664717 27.6440751,5.01341869 C27.2581748,4.6275184 26.639502,4.63019859 26.2562632,5.01343744 L22.3442969,8.92540365 Z M22.5511363,23.7681818 C21.4841454,23.7681818 20.6181818,22.9028625 20.6181818,21.8352273 C20.6181818,20.7675921 21.4841454,19.9022727 22.5511363,19.9022727 C23.6181273,19.9022727 24.4840909,20.7675921 24.4840909,21.8352273 C24.4840909,22.9028625 23.6181273,23.7681818 22.5511363,23.7681818 Z M23.625,15.75 C27.9742424,15.75 31.5,12.2242424 31.5,7.875 C31.5,3.52575759 27.9742424,0 23.625,0 C19.2757576,0 15.75,3.52575759 15.75,7.875 C15.75,12.2242424 19.2757576,15.75 23.625,15.75 Z" id="Shape"></path>
            </g>
        </g>
    </g>
</svg>