<svg xmlns="http://www.w3.org/2000/svg" fill="#22B47E" xmlns:xlink="http://www.w3.org/1999/xlink" version="1.1" x="0px" y="0px" viewBox="0 0 100 125" enable-background="new 0 0 100 100" xml:space="preserve"><g><path d="M56.212,76.868v-8.635c0-2.096,1.669-3.801,3.719-3.801h8.91v-3.27c-4.154-1.025-9.714-1.187-16.238-6.229   c-0.063,2.398-5.24,4.335-11.623,4.335c-6.383,0-11.559-1.937-11.622-4.335C14.772,66.206,5,53.081,5,79.763   c0,7.311,19.514,10.829,35.907,10.829c0.025,0,0.049-0.001,0.072-0.001c0.025,0,0.049,0.001,0.072,0.001   c9.747,0,20.594-1.244,27.789-3.788V80.67h-8.91C57.881,80.67,56.212,78.964,56.212,76.868z"/><path d="M25.264,39.633c1.281,3.491,3.232,6.886,5.634,9.551c0.625,0.692,1.287,1.318,1.968,1.901   c0.187,0.16,0.366,0.332,0.557,0.482c2.306,1.818,4.892,2.944,7.628,2.944c2.72,0,5.291-1.111,7.585-2.91   c0.155-0.122,0.302-0.264,0.454-0.392c0.712-0.596,1.402-1.245,2.053-1.961c2.435-2.683,4.412-6.116,5.705-9.645   c1.084-0.321,2.22-2.376,2.684-5.001c0.502-2.853,0.026-5.342-1.064-5.75c-0.051-0.927-0.137-1.863-0.266-2.799   c-0.438-8.067-2.903-11.673-6.545-13.282c-2.58-2.071-6.029-3.363-10.606-3.363c-4.565,0-8.002,1.26-10.571,3.284   c-4.012,1.685-6.637,5.696-6.787,15.213c-0.024,0.303-0.044,0.604-0.062,0.904c-1.189,0.232-1.73,2.816-1.205,5.793   C22.912,37.352,24.137,39.472,25.264,39.633z"/><path d="M93.988,67.139H82.371V55.522c0-0.561-0.489-1.013-1.095-1.013h-8.635c-0.604,0-1.095,0.452-1.095,1.013v11.616H59.931   c-0.561,0-1.013,0.49-1.013,1.095v8.635c0,0.605,0.452,1.095,1.013,1.095h11.616V89.58c0,0.56,0.49,1.012,1.095,1.012h8.635   c0.605,0,1.095-0.452,1.095-1.012V77.963h11.617c0.56,0,1.012-0.489,1.012-1.095v-8.635C95,67.629,94.548,67.139,93.988,67.139z"/></g></svg>
